<?xml version="1.0" encoding="UTF-8"?><!DOCTYPE svg PUBLIC "-//W3C//DTD SVG 1.1//EN" "http://www.w3.org/Graphics/SVG/1.1/DTD/svg11.dtd">
<svg xmlns="http://www.w3.org/2000/svg" width="16" height="16" fill="currentColor" class="bi bi-info-circle" viewBox="0 0 16 16">
  <defs/>
  <symbol id="rd-icon-information" viewBox="0 0 18 18">
    <path d="M8 15A7 7 0 1 1 8 1a7 7 0 0 1 0 14m0 1A8 8 0 1 0 8 0a8 8 0 0 0 0 16"/>
    <path d="m8.93 6.588-2.29.287-.082.38.45.083c.294.07.352.176.288.469l-.738 3.468c-.194.897.105 1.319.808 1.319.545 0 1.178-.252 1.465-.598l.088-.416c-.2.176-.492.246-.686.246-.275 0-.375-.193-.304-.533zM9 4.5a1 1 0 1 1-2 0 1 1 0 0 1 2 0"/>
  </symbol>
  <symbol id="#rd-icon-lightning" viewBox="0 0 18 18">
    <path d="M11 13a5 5 0 1 0-4.975-5.5H4A1.5 1.5 0 0 0 2.5 6h-1A1.5 1.5 0 0 0 0 7.5v1A1.5 1.5 0 0 0 1.5 10h1A1.5 1.5 0 0 0 4 8.5h2.025A5 5 0 0 0 11 13m.5-7.5v2h2a.5.5 0 0 1 0 1h-2v2a.5.5 0 0 1-1 0v-2h-2a.5.5 0 0 1 0-1h2v-2a.5.5 0 0 1 1 0"/>
  </symbol>
</svg>
